<svg width="26" height="26" viewBox="0 0 26 26" fill="none" xmlns="http://www.w3.org/2000/svg">
<path d="M18.2318 20.6402C18.5853 21.0645 19.2159 21.1218 19.6402 20.7682C20.0645 20.4147 20.1218 19.7841 19.7682 19.3598L18.2318 20.6402ZM14 14L13.2318 13.3598C12.9227 13.7307 12.9227 14.2693 13.2318 14.6402L14 14ZM19.7682 8.64018C20.1218 8.21591 20.0645 7.58534 19.6402 7.23178C19.2159 6.87821 18.5853 6.93554 18.2318 7.35982L19.7682 8.64018ZM19.7682 19.3598L14.7682 13.3598L13.2318 14.6402L18.2318 20.6402L19.7682 19.3598ZM14.7682 14.6402L19.7682 8.64018L18.2318 7.35982L13.2318 13.3598L14.7682 14.6402Z" fill="white"/>
<path d="M11.2929 20.7071C11.6834 21.0976 12.3166 21.0976 12.7071 20.7071C13.0976 20.3166 13.0976 19.6834 12.7071 19.2929L11.2929 20.7071ZM6 14L5.29289 13.2929C5.10536 13.4804 5 13.7348 5 14C5 14.2652 5.10536 14.5196 5.29289 14.7071L6 14ZM12.7071 8.70711C13.0976 8.31658 13.0976 7.68342 12.7071 7.29289C12.3166 6.90237 11.6834 6.90237 11.2929 7.29289L12.7071 8.70711ZM12.7071 19.2929L6.70711 13.2929L5.29289 14.7071L11.2929 20.7071L12.7071 19.2929ZM6.70711 14.7071L12.7071 8.70711L11.2929 7.29289L5.29289 13.2929L6.70711 14.7071Z" fill="white"/>
</svg>
