<svg width="40" height="40" viewBox="0 0 40 40" fill="none" xmlns="http://www.w3.org/2000/svg">
<path d="M20 32C13.3724 32 8 26.6276 8 20C8 13.3724 13.3724 8 20 8C26.6276 8 32 13.3724 32 20C32 26.6276 26.6276 32 20 32ZM20 29.6C22.5461 29.6 24.9879 28.5886 26.7882 26.7882C28.5886 24.9879 29.6 22.5461 29.6 20C29.6 17.4539 28.5886 15.0121 26.7882 13.2118C24.9879 11.4114 22.5461 10.4 20 10.4C17.4539 10.4 15.0121 11.4114 13.2118 13.2118C11.4114 15.0121 10.4 17.4539 10.4 20C10.4 22.5461 11.4114 24.9879 13.2118 26.7882C15.0121 28.5886 17.4539 29.6 20 29.6ZM20 17.6C20.3183 17.6 20.6235 17.7264 20.8485 17.9515C21.0736 18.1765 21.2 18.4817 21.2 18.8V24.8C21.2 25.1183 21.0736 25.4235 20.8485 25.6485C20.6235 25.8736 20.3183 26 20 26C19.6817 26 19.3765 25.8736 19.1515 25.6485C18.9264 25.4235 18.8 25.1183 18.8 24.8V18.8C18.8 18.4817 18.9264 18.1765 19.1515 17.9515C19.3765 17.7264 19.6817 17.6 20 17.6ZM20 16.4C19.6817 16.4 19.3765 16.2736 19.1515 16.0485C18.9264 15.8235 18.8 15.5183 18.8 15.2C18.8 14.8817 18.9264 14.5765 19.1515 14.3515C19.3765 14.1264 19.6817 14 20 14C20.3183 14 20.6235 14.1264 20.8485 14.3515C21.0736 14.5765 21.2 14.8817 21.2 15.2C21.2 15.5183 21.0736 15.8235 20.8485 16.0485C20.6235 16.2736 20.3183 16.4 20 16.4Z" fill="white"/>
</svg>
