<svg width="40" height="40" viewBox="0 0 40 40" fill="none" xmlns="http://www.w3.org/2000/svg">
<path d="M12.1465 16.3775C14.3925 16.3775 16.2071 14.5994 16.2071 12.3861C16.2071 11.0183 16.702 9.75 15.6107 9.04125C14.9763 8.60605 12.1212 8.4071 11.2837 8.4071C10.2812 8.4071 8.9742 9.2029 8.2636 9.79974C7.37535 10.5334 8.07326 11.1675 8.07326 12.3861C8.07326 14.5994 9.90052 16.3775 12.1465 16.3775ZM9.31682 12.0006C10.0655 11.8638 10.5731 12.1125 10.5731 12.1125L11.8166 11.5157C11.8166 11.5157 11.1821 12.4109 11.7532 12.1125C13.0221 11.6897 14.4433 11.8638 15.1666 12.013C15.192 12.1622 15.2173 12.3239 15.2173 12.498C15.2173 14.1393 13.885 15.4698 12.2354 15.4698C10.5984 15.4698 9.26606 14.1393 9.26606 12.498C9.26606 12.3115 9.27875 12.1622 9.31682 12.0006Z" fill="white"/>
<path d="M32.0053 11.8265C31.9799 11.6027 31.9673 11.3789 31.9165 11.155C31.7515 9.76241 30.4699 6.91497 26.8154 7.00201C23.6557 7.07662 22.9705 9.40182 22.8056 10.8193C22.6914 11.1675 22.6152 11.5281 22.6025 11.9135C18.4912 12.6099 18.948 16.7007 21.4605 16.7629C21.2194 14.6242 22.2599 13.3559 22.6533 12.9331C23.0213 15.134 24.9627 16.8251 27.3103 16.8251C29.5436 16.8251 31.3962 15.3081 31.9038 13.2689C32.2845 13.9279 32.9316 15.2957 32.7794 16.7505C36.7131 16.738 34.7716 12.3114 32.0053 11.8265ZM27.2976 15.5319C25.4576 15.5319 23.9476 14.0771 23.9095 12.2741C24.5821 12.0379 25.0896 10.8939 25.0896 10.8939C25.0896 10.8939 25.4957 11.0307 25.4957 12.3239C26.1936 12.5601 27.4118 10.322 27.4118 10.322V12.0876C28.1858 12.299 30.6095 12.0254 30.6095 12.0254L30.6983 12.1001C30.6983 12.1374 30.711 12.1747 30.711 12.212C30.6983 14.0274 29.1756 15.5319 27.2976 15.5319Z" fill="white"/>
<path d="M28.2873 16.9619H26.2951H24.6201L19.7348 22.7313L15.0143 17.0365H9.63406L4 23.0919L5.18011 24.2856L9.21531 20.9159V27.4439H10.0147V32.4176H9.50716V33.002H11.842V32.4176V27.4439H12.7302V32.4176V33.002H15.0651V32.4176H14.5448V27.4439H15.5346V21.0403L18.745 24.2732L20.0647 23.9623L20.8007 24.1364L24.4425 20.0455L24.6582 21.662L21.2702 27.3817H25.1785V32.343H24.6582V32.9274H27.0057V32.343V27.3817H27.8813V32.343V32.9274H30.2161V32.343H29.7086V27.3817H32.7413L29.7466 21.662L29.9116 19.6725L32.7667 23.4152L34.6574 22.9552L30.1273 16.9619H28.2873Z" fill="white"/>
</svg>
