<svg width="26" height="26" viewBox="0 0 26 26" fill="none" xmlns="http://www.w3.org/2000/svg">
<path d="M6.76822 7.35982C6.41466 6.93554 5.78409 6.87821 5.35982 7.23178C4.93554 7.58534 4.87821 8.21591 5.23178 8.64018L6.76822 7.35982ZM11 14L11.7682 14.6402C12.0773 14.2693 12.0773 13.7307 11.7682 13.3598L11 14ZM5.23178 19.3598C4.87821 19.7841 4.93554 20.4147 5.35981 20.7682C5.78409 21.1218 6.41465 21.0645 6.76822 20.6402L5.23178 19.3598ZM5.23178 8.64018L10.2318 14.6402L11.7682 13.3598L6.76822 7.35982L5.23178 8.64018ZM10.2318 13.3598L5.23178 19.3598L6.76822 20.6402L11.7682 14.6402L10.2318 13.3598Z" fill="white"/>
<path d="M13.7071 7.29289C13.3166 6.90237 12.6834 6.90237 12.2929 7.29289C11.9024 7.68342 11.9024 8.31658 12.2929 8.70711L13.7071 7.29289ZM19 14L19.7071 14.7071C19.8946 14.5196 20 14.2652 20 14C20 13.7348 19.8946 13.4804 19.7071 13.2929L19 14ZM12.2929 19.2929C11.9024 19.6834 11.9024 20.3166 12.2929 20.7071C12.6834 21.0976 13.3166 21.0976 13.7071 20.7071L12.2929 19.2929ZM12.2929 8.70711L18.2929 14.7071L19.7071 13.2929L13.7071 7.29289L12.2929 8.70711ZM18.2929 13.2929L12.2929 19.2929L13.7071 20.7071L19.7071 14.7071L18.2929 13.2929Z" fill="white"/>
</svg>
