<svg width="40" height="40" viewBox="0 0 40 40" fill="none" xmlns="http://www.w3.org/2000/svg">
<path d="M34.7761 17.0736L34.0786 16.345L31.6308 9.83495C31.2137 8.73533 30.147 8.00675 28.9573 8H11.4735C10.2838 8 9.21709 8.73533 8.8 9.83495L6.38633 16.264L5.3812 17.1815C4.50598 17.9168 4 18.9962 4 20.1296V29.6147C4.00684 31.1663 5.28547 32.4211 6.85812 32.4211H8.66325C10.2359 32.4211 11.5145 31.1663 11.5214 29.6147V28.2384H28.4786V29.6147C28.4855 31.1663 29.7641 32.4211 31.3368 32.4211H33.1419C34.7145 32.4211 35.9932 31.1663 36 29.6147V19.88C35.9932 18.8208 35.5556 17.8089 34.7761 17.0736ZM10.0855 10.2937C10.3043 9.72027 10.8581 9.34923 11.4735 9.34923H28.9641C29.5795 9.34923 30.1333 9.72701 30.3521 10.2937L32.4855 15.9605H30.8923C30.5162 13.4306 28.1299 11.6834 25.5658 12.0612C23.5214 12.358 21.9145 13.9434 21.6137 15.9605H7.95214L10.0855 10.2937ZM29.4974 15.9605H22.9949C23.3709 14.1862 25.135 13.0529 26.9333 13.4239C28.2188 13.6937 29.2239 14.6854 29.4974 15.9605ZM10.1538 29.6147C10.147 30.4242 9.48376 31.0718 8.66325 31.0718H6.85812C6.03761 31.0718 5.37436 30.4242 5.36752 29.6147V27.8472C5.77778 28.1103 6.31795 28.2384 6.85812 28.2384H10.1538V29.6147ZM6.85812 26.8892C6.04444 26.896 5.37436 26.2551 5.36752 25.4455V20.1296C5.36752 19.3875 5.70256 18.6792 6.27692 18.2002C6.28376 18.1934 6.29744 18.1799 6.30427 18.1732L7.23419 17.3097H33.1282L33.7846 18.0045C33.7915 18.018 33.812 18.0248 33.8188 18.0383C34.3316 18.5172 34.6256 19.1851 34.6256 19.88V25.4455H34.6325C34.6256 26.2483 33.9556 26.896 33.1419 26.8892H6.85812ZM34.6325 29.6147C34.6256 30.4242 33.9624 31.0718 33.1419 31.0718H31.3368C30.5162 31.0718 29.853 30.4174 29.8462 29.6147V28.2384H33.1419C33.6821 28.2384 34.2222 28.1103 34.6325 27.8472V29.6147Z" fill="white"/>
<path d="M13.0256 20.0081H7.89742C7.52135 20.0081 7.21366 20.3117 7.21366 20.6828V24.1908C7.21366 24.5618 7.52135 24.8654 7.89742 24.8654H13.0256C13.4017 24.8654 13.7094 24.5618 13.7094 24.1908V20.6828C13.7094 20.3117 13.4017 20.0081 13.0256 20.0081ZM12.3419 23.5161H8.58118V21.3574H12.3419V23.5161Z" fill="white"/>
<path d="M32.1026 20.0081H26.9744C26.5983 20.0081 26.2906 20.3117 26.2906 20.6828V24.1908C26.2906 24.5618 26.5983 24.8654 26.9744 24.8654H32.1026C32.4786 24.8654 32.7863 24.5618 32.7863 24.1908V20.6828C32.7863 20.3117 32.4786 20.0081 32.1026 20.0081ZM31.4188 23.5161H27.6581V21.3574H31.4188V23.5161Z" fill="white"/>
<path d="M23.3026 21.9692H16.6974C16.3214 21.9692 16.0137 22.1777 16.0137 22.432C16.0137 22.6864 16.3214 22.8948 16.6974 22.8948H23.3026C23.6786 22.8948 23.9863 22.6864 23.9863 22.432C23.9863 22.1777 23.6786 21.9692 23.3026 21.9692Z" fill="white"/>
<path d="M23.3026 20.2105H16.6974C16.3214 20.2105 16.0137 20.419 16.0137 20.6733C16.0137 20.9276 16.3214 21.1361 16.6974 21.1361H23.3026C23.6786 21.1361 23.9863 20.9276 23.9863 20.6733C23.9863 20.419 23.6786 20.2105 23.3026 20.2105Z" fill="white"/>
<path d="M23.3026 23.728H16.6974C16.3214 23.728 16.0137 23.9364 16.0137 24.1907C16.0137 24.4451 16.3214 24.6535 16.6974 24.6535H23.3026C23.6786 24.6535 23.9863 24.4451 23.9863 24.1907C23.9863 23.9364 23.6786 23.728 23.3026 23.728Z" fill="white"/>
</svg>
