<svg width="40" height="40" viewBox="0 0 40 40" fill="none" xmlns="http://www.w3.org/2000/svg">
<path d="M26.3998 12.1223C28.6424 12.1223 30.4604 10.3043 30.4604 8.06169C30.4604 5.818 28.6424 4 26.3998 4C24.1571 4 22.3381 5.818 22.3381 8.06065C22.3381 10.3033 24.1561 12.1223 26.3998 12.1223Z" fill="white"/>
<path d="M33.08 10.9522C30.748 14.2186 27.626 14.5965 24.2651 12.602C24.0367 12.466 23.0213 11.9074 22.797 11.7735C17.3918 8.56522 11.9928 9.8236 8.3724 14.8945C6.83369 17.051 10.3929 19.0953 11.9139 16.9637C13.7849 14.3442 16.1635 13.5863 18.7654 14.4158C17.4333 16.7281 16.2684 19.0257 14.6259 22.2911C12.9823 25.5564 10.6067 28.5466 7.04446 26.6414C3.5507 24.7725 2.08155 29.0969 3.58911 29.7344C5.9927 30.7519 8.77524 31.5867 10.5662 31.4621C12.5971 31.3209 15.1595 29.2516 16.7823 27.1917C16.881 27.2446 16.9858 27.2924 17.1 27.3318C19.4278 28.1427 22.4793 30.3023 23.4096 31.0675C24.3388 31.8327 22.8572 34.5769 24.0689 36.3845C25.0885 37.9066 28.2053 37.2608 27.7807 34.6433C27.4111 32.3654 28.5147 29.7479 26.3095 28.1687C25.1352 27.3277 22.988 25.5938 21.1285 24.6427C22.3859 22.2059 23.6961 19.7961 25.075 17.4278C29.4699 18.7745 33.6469 17.188 36.6225 13.0204C38.1602 10.865 34.6021 8.82063 33.08 10.9522Z" fill="white"/>
</svg>
